<svg xmlns="http://www.w3.org/2000/svg" width="24" height="24" fill="none"><path fill="#161616" d="M24 12c0 6.627-5.372 12-12 12h-.023C5.36 23.988 0 18.618 0 12S5.36.012 11.977 0H12c6.628 0 12 5.371 12 12Z"/><path fill="#161616" d="M11.977 0v24C5.36 23.988 0 18.618 0 12S5.36.012 11.977 0Z"/><path fill="#E5322D" d="m18.53 8.678-.015 2.459a5.929 5.929 0 0 1-1.42-.19 6.005 6.005 0 0 1-1.99-.937c0 .251.004.626.004 1.082 0 .607 0 .952-.003 1.318-.011 2.261.045 2.699-.154 3.593a4.666 4.666 0 0 1-.169.636c-.382 1.064-1.214 1.917-2.063 2.37a4.114 4.114 0 0 1-.742.307c-1.604.486-3.532.059-4.526-1.124l-.007-.007-.007-.01c-.846-1.02-1.03-2.61-1.048-3.016 0-.052-.003-.103-.003-.103a4.99 4.99 0 0 1 .236-1.64c.172-.547.736-1.69 2.005-2.385a4.384 4.384 0 0 1 2.587-.495l-.03 2.488c-.05-.013-1.265-.3-2.063.527-.722.75-.676 1.958-.163 2.643.027.036.056.072.087.105.286.32.65.44.896.524.325.107.666.157 1.009.148.367-.006.724-.12 1.025-.33.834-.566.947-1.575.95-1.632l-.028-9.744v-.003l1.563-.028h.025l.227-.004c.167.6.45 1.163.833 1.656.12.154.251.3.39.437a5.021 5.021 0 0 0 1.852 1.144h.004c.24.088.487.158.738.211Z"/><path fill="#24F6FA" d="M17.823 9.79h-.005a5.424 5.424 0 0 1-2.515-.19 5.356 5.356 0 0 1-1.574-.822 15.946 15.946 0 0 1 0 5.204c-.338 2.025-.55 3.294-1.68 4.106a1.94 1.94 0 0 1-.072.05c-1.56 1.057-3.741.533-4.54.035l-.012-.007-.022-.014a5.238 5.238 0 0 1-.738-.591 4.305 4.305 0 0 1-1.308-3.044 4.613 4.613 0 0 1 .288-1.728c.133-.354.627-1.617 2.005-2.385a4.477 4.477 0 0 1 2.893-.49l-.011.592v.004l-.023 1.248a3.774 3.774 0 0 0-1.319-.073c-.354.043-.702.084-1.072.317a2.15 2.15 0 0 0-.933 1.332 1.793 1.793 0 0 0-.047.82c.014.077.118.62.556 1.009.147.13.21.136.424.336.19.178.237.263.41.41a2.154 2.154 0 0 0 .127.098c.095.07.195.132.3.188.433.227 1.209.252 1.778-.025.787-.382 1.216-1.262 1.214-1.785l-.028-9.747h.054l2.414-.014c-.002.188.024.376.077.557l.019.059c.006.021.01.031.016.046.037.098.08.194.13.287l.033.068v.01l.005.012.006.01a.219.219 0 0 0 .01.02l.012.023a11.108 11.108 0 0 0 .157.282l.025.042.039.064.047.075c.184.29.507.78.965 1.149.643.52 1.382.666 1.846.71l.01.436c.017.44.03.878.039 1.316Z"/><path fill="#fff" d="M17.83 10.485a5.274 5.274 0 0 1-3.385-1.072v5.204c-.012.2-.186 2.398-2.172 3.608a4.98 4.98 0 0 1-.296.165c-1.868.953-3.694.206-3.874.129a2.427 2.427 0 0 1-.658-.334l-.042-.032c-1.219-.925-1.269-2.809-1.277-3.087a4.99 4.99 0 0 1 .237-1.64c.201-.64.801-1.722 2.005-2.384a4.381 4.381 0 0 1 2.166-.532v.004l-.03 1.875c-.127-.034-.906-.23-1.668.249a2.151 2.151 0 0 0-.933 1.332c-.075.266-.09.546-.047.819.067.337.226.65.46.902a2.15 2.15 0 0 0 .64.505l.004.003a1.856 1.856 0 0 0 1.992.777 2.21 2.21 0 0 0 .501-.169c.193-.092.37-.214.525-.363.598-.575.686-1.371.69-1.42l-.026-9.75.26-.006 1.563-.03h.023l.018.045c.037.087.08.184.13.288l.034.068v.01l.005.011.005.01a.22.22 0 0 0 .011.02.362.362 0 0 0 .012.024c.027.053.059.108.088.164.022.04.045.079.069.118l.025.042.038.063.048.075c.27.424.594.81.964 1.15.54.494 1.168.882 1.851 1.143h.005l.023 1.316.017.7Z"/></svg>